<?xml version="1.0" encoding="UTF-8" standalone="no"?>
<svg width="53px" height="57px" viewBox="0 0 53 57" version="1.1" xmlns="http://www.w3.org/2000/svg" xmlns:xlink="http://www.w3.org/1999/xlink" xmlns:sketch="http://www.bohemiancoding.com/sketch/ns">
    <!-- Generator: Sketch 3.2.2 (9983) - http://www.bohemiancoding.com/sketch -->
    <title>mascot</title>
    <desc>Created with Sketch.</desc>
    <defs>
        <path id="path-1" d="M39.7516409,24.3741947 C41.1313902,23.5658183 45.5248572,19.469461 43.6240279,11.0767045 C43.5364115,10.6898507 36.8639914,12.2269178 36.3739344,5.83487228 C36.1504392,2.91971845 43.6240279,6.54509943 43.6240279,6.54509943 C43.6240279,6.54509943 45.7817052,-0.463648339 48.8352286,0.517045443 C50.8785521,1.17329544 49.5014197,7.9825993 46.9978682,10.1139918 C53.7840926,22.1786229 51.0678259,37.5472295 33.0287076,44.7191993 C28.198273,46.6396775 12.0087453,46.0103452 5.37961668,35.9477994 C-1.24951193,25.8852536 -2.65624981,7.6904299 8.27386156,3.81012723 C28.5903295,-3.40242917 37.1679316,25.8879548 39.7516409,24.3741947 Z"></path>
    </defs>
    <g id="mascot" stroke="none" stroke-width="1" fill="none" fill-rule="evenodd" sketch:type="MSPage">
        <g sketch:type="MSArtboardGroup" id="narwhal">
            <g sketch:type="MSLayerGroup" transform="translate(1.000000, 1.000000)">
                <path d="M7.28693182,46.193892 C-3.55466333,51.3398767 9.18678955,53.7322445 14.4367898,50.0390625" id="fin-left" stroke="#000000" fill="#389AC5" sketch:type="MSShapeGroup"></path>
                <g id="body" transform="translate(0.000000, 9.000000)">
                    <mask id="mask-2" sketch:name="Path 15" fill="white">
                        <use xlink:href="#path-1"></use>
                    </mask>
                    <use id="Path-15" stroke="#000000" fill="#389AC5" sketch:type="MSShapeGroup" xlink:href="#path-1"></use>
                    <path d="M8.03175365,40.1104545 C7.4138491,35.9477156 6.7240439,31.4383923 12.5797847,31.438392 C18.4355255,31.4383918 24.5238299,41.0287155 33.1860461,45.9195942 C41.8482623,50.8104728 8.6496582,44.2731934 8.03175365,40.1104545 Z" id="Path-18" fill="#B3E8FF" sketch:type="MSShapeGroup" mask="url(#mask-2)"></path>
                    <path d="M51.0412361,21.5167212 C49.0362101,31.0256737 41.0858327,36.2940048 35.5646197,39.2889928 C30.0434067,42.2839808 45.8523029,44.0182739 45.8523029,44.0182739 L54.8956537,23.0520548 C54.8956537,23.0520548 53.046262,12.0077687 51.0412361,21.5167212 Z" id="Path-20" fill="#B3E8FF" sketch:type="MSShapeGroup" mask="url(#mask-2)"></path>
                    <path d="M43.2782593,24.7718506 C41.7943726,25.4293213 40.3858032,25.3029785 38.5891113,22.944397" id="Path-21" stroke="#000000" sketch:type="MSShapeGroup" mask="url(#mask-2)"></path>
                </g>
                <path d="M24.7403237,49.1706777 C32.3988354,55.7728737 38.4152724,55.3212801 39.6450564,52.7148724 C40.8748404,50.1084648 34.5994374,48.6802803 36.41558,42.4510995" id="fin-right" stroke="#000000" fill="#389AC5" sketch:type="MSShapeGroup"></path>
                <path d="M6.38927698,13.5939551 C7.10625122,16.0903998 11.7729936,15.5998828 10.4015499,11.8975418 C9.03010612,8.19520087 4.27045796,0.26144831 3.61255629,0.502864491 C2.95465461,0.744280672 5.67230274,11.0975104 6.38927698,13.5939551 Z" id="horn" stroke="#000000" fill="#FBFBFB" sketch:type="MSShapeGroup"></path>
                <g id="face" transform="translate(0.000000, 17.000000)" sketch:type="MSShapeGroup">
                    <ellipse id="Oval-1" fill="#000000" cx="13.5" cy="6" rx="1.5" ry="2"></ellipse>
                    <ellipse id="Oval-2" fill="#000000" cx="7.5" cy="6" rx="1.5" ry="2"></ellipse>
                    <path d="M5.5,2.5 L7.5,1.5" id="Line" stroke="#000000" stroke-linecap="square"></path>
                    <path d="M13.5,0.5 L15.5,1.5" id="Line-2" stroke="#000000" stroke-linecap="square"></path>
                    <path d="M10.1673157,10.5280572 C11.3164761,10.5280572 10.6654747,9.13046061 13.2505777,9.13046061 C15.8356808,9.13046061 17.4243558,12.3915909 21.0040594,12.2769862 C24.583763,12.1623816 22.1706205,9.24141342 22.4420416,8.53563358 C23.627722,7.97431787 28.1002012,11.4922614 23.0948683,15.295159 C18.0895353,19.0980566 11.5199082,13.5951005 10.3427136,13.5951005 C9.165519,13.5951005 9.00193573,17.187585 3.84612346,16.4564573 C-1.3096888,15.7253295 0.998622468,10.5280571 2.45174912,10.8232151 C1.92867075,13.5951005 3.42229041,13.8816663 4.00616177,13.2321683 C8.62736211,8.09154919 8.97529913,10.5280572 10.1673157,10.5280572 Z" id="Path-24" fill="#000000"></path>
                </g>
            </g>
        </g>
    </g>
</svg>